HIERARCHY
ROOT Hips
{
	OFFSET 0.000000 0.000000 0.000000 
	CHANNELS 6 Xposition Yposition Zposition Zrotation Yrotation Xrotation
	JOINT LeftUpLeg
	{
		OFFSET 1.363060 -1.794630 0.839290 
		CHANNELS 3 Zrotation Yrotation Xrotation
		JOINT LeftLeg
		{
			OFFSET 2.448110 -6.726130 0.000000 
			CHANNELS 3 Zrotation Yrotation Xrotation
			JOINT LeftFoot
			{
				OFFSET 2.562200 -7.039590 0.000000 
				CHANNELS 3 Zrotation Yrotation Xrotation
				JOINT LeftToeBase
				{
					OFFSET 0.157640 -0.433110 2.322550 
					CHANNELS 3 Zrotation Yrotation Xrotation
					End Site
					{
						OFFSET 0.000000 0.000000 0.000000 
					}
				}
			}
		}
	}
	JOINT RightUpLeg
	{
		OFFSET -1.305520 -1.794630 0.839290 
		CHANNELS 3 Zrotation Yrotation Xrotation
		JOINT RightLeg
		{
			OFFSET -2.542530 -6.985550 0.000000 
			CHANNELS 3 Zrotation Yrotation Xrotation
			JOINT RightFoot
			{
				OFFSET -2.568260 -7.056230 0.000000 
				CHANNELS 3 Zrotation Yrotation Xrotation
				JOINT RightToeBase
				{
					OFFSET -0.164730 -0.452590 2.363150 
					CHANNELS 3 Zrotation Yrotation Xrotation
					End Site
					{
						OFFSET 0.000000 0.000000 0.000000 
					}
				}
			}
		}
	}
	JOINT Spine
	{
		OFFSET 0.028270 2.035590 -0.193380 
		CHANNELS 3 Zrotation Yrotation Xrotation
		JOINT Spine1
		{
			OFFSET 0.056720 2.048850 -0.042750 
			CHANNELS 3 Zrotation Yrotation Xrotation
			JOINT Neck1
			{
				OFFSET -0.054170 1.746240 0.172020 
				CHANNELS 3 Zrotation Yrotation Xrotation
				JOINT Head
				{
					OFFSET 0.104070 1.761360 -0.123970 
					CHANNELS 3 Zrotation Yrotation Xrotation
					End Site
					{
						OFFSET 0.000000 0.000000 0.000000 
					}
				}
			}
			JOINT LeftArm
			{
				OFFSET 3.362410 1.200890 -0.311210 
				CHANNELS 3 Zrotation Yrotation Xrotation
				JOINT LeftForeArm
				{
					OFFSET 4.983000 -0.000000 -0.000000 
					CHANNELS 3 Zrotation Yrotation Xrotation
					JOINT LeftHand
					{
						OFFSET 3.483560 -0.000000 -0.000000 
						CHANNELS 3 Zrotation Yrotation Xrotation
						JOINT LeftHandIndex1
						{
							OFFSET 0.715260 -0.000000 -0.000000 
							CHANNELS 3 Zrotation Yrotation Xrotation
							End Site
							{
								OFFSET 0.000000 0.000000 0.000000 
							}
						}
					}
				}
			}
			JOINT RightArm
			{
				OFFSET -3.136600 1.374050 -0.404650 
				CHANNELS 3 Zrotation Yrotation Xrotation
				JOINT RightForeArm
				{
					OFFSET -5.241900 -0.000000 -0.000000 
					CHANNELS 3 Zrotation Yrotation Xrotation
					JOINT RightHand
					{
						OFFSET -3.444170 -0.000000 -0.000000 
						CHANNELS 3 Zrotation Yrotation Xrotation
						JOINT RightHandIndex1
						{
							OFFSET -0.622530 -0.000000 -0.000000 
							CHANNELS 3 Zrotation Yrotation Xrotation
							End Site
							{
								OFFSET 0.000000 0.000000 0.000000 
							}
						}
					}
				}
			}
		}
	}
}
MOTION
Frames: 15
Frame Time: 0.041667
-0.330673 17.847505 -30.446866 -2.413813 37.493065 1.369969 -6.467017 -13.518954 -8.890455 0.209524 8.583000 23.342933 2.639269 -9.566278 5.792263 0.213800 -2.976600 -8.213600 20.661462 -12.215141 -8.441159 -1.109845 -8.869158 22.958428 9.160879 -36.638140 -24.425118 -0.046400 -1.389800 3.822000 2.145095 8.526437 -0.244142 -1.418258 4.387276 -0.364859 -9.519410 31.231372 6.801565 -4.635200 15.475900 9.110000 -91.839669 -6.599151 0.084927 10.675424 -17.584136 -1.591005 0.710465 -0.290822 -5.811376 -7.125000 0.000000 0.000000 76.484299 -11.584523 -18.140194 -14.044459 22.192653 -2.875386 -0.137126 -0.532147 -10.444935 7.125000 0.000000 0.000000 
-0.321433 17.846611 -30.446468 -2.486644 37.306143 1.338128 -6.440948 -13.347699 -8.939860 0.216123 8.593402 23.369589 2.635393 -9.530456 5.742677 0.270200 -3.343700 -9.237000 20.675714 -12.173017 -8.381559 -1.102829 -8.853992 22.910078 9.140020 -36.558705 -24.302790 -0.047100 -1.400000 3.850200 2.023936 8.767156 -0.546543 -1.639198 4.501255 -0.633950 -9.705058 30.866879 6.604221 -4.941800 15.371900 9.003300 -91.518579 -5.979051 1.024706 10.748898 -17.675994 -1.610528 0.711739 -0.285210 -6.190604 -7.125000 0.000000 0.000000 76.802611 -9.813210 -23.603939 -12.626159 20.188307 -2.394048 -0.190443 -0.478124 -5.093634 7.125000 0.000000 0.000000 
-0.313583 17.846611 -30.448058 -2.492767 37.098494 1.309301 -6.474820 -13.240139 -8.903940 0.215204 8.594596 23.361178 2.617786 -9.420833 5.708973 0.272800 -3.359600 -9.281500 20.620781 -12.126535 -8.315282 -1.104289 -8.853154 22.902557 9.139346 -36.507406 -24.101923 -0.043200 -1.341200 3.688200 1.810802 8.800780 -0.856416 -2.090471 4.501314 -1.088020 -9.398211 30.824639 6.605408 -4.892700 15.380300 8.892000 -91.076254 -5.418682 1.459947 10.892907 -17.873389 -1.649830 0.716190 -0.264166 -6.796792 -7.125000 0.000000 0.000000 77.356410 -8.674632 -28.179180 -11.817195 18.997847 -2.136809 -0.230940 -0.429694 -0.407185 7.125000 0.000000 0.000000 
-0.307125 17.847207 -30.446170 -2.447551 36.936843 1.405598 -6.509896 -13.174183 -8.937153 0.214433 8.591864 23.350081 2.605966 -9.346841 5.654017 0.267600 -3.327900 -9.193100 20.555416 -12.087493 -8.347643 -1.103061 -8.850193 22.892058 9.122976 -36.435462 -23.986999 -0.042400 -1.329000 3.654600 1.863147 8.698563 -0.789802 -1.941763 4.455504 -0.930950 -9.474167 30.907526 6.569758 -4.853700 15.394400 8.905800 -91.180645 -5.643483 1.065609 10.844465 -17.809606 -1.638693 0.724662 -0.265946 -6.564047 -7.125000 0.000000 0.000000 76.934441 -8.748973 -28.144478 -11.657817 18.759440 -2.090087 -0.235755 -0.427585 -0.562163 7.125000 0.000000 0.000000 
-0.299474 17.847107 -30.445872 -2.404972 36.769650 1.448339 -6.571587 -13.145395 -8.902583 0.212268 8.589671 23.334969 2.580700 -9.198683 5.601333 0.261900 -3.292500 -9.094100 20.471653 -12.066701 -8.335833 -1.104457 -8.851952 22.894048 9.105161 -36.356143 -23.849134 -0.040900 -1.305500 3.589900 1.832604 8.691037 -0.857867 -1.963259 4.449794 -0.976636 -9.480703 30.876600 6.532157 -4.872600 15.383500 8.875300 -91.103945 -5.549687 1.109179 10.869497 -17.844258 -1.646089 0.727767 -0.261606 -6.635539 -7.125000 0.000000 0.000000 76.798877 -8.292073 -30.323623 -11.188783 18.048634 -1.948913 -0.256223 -0.401420 1.624670 7.125000 0.000000 0.000000 
-0.292320 17.846909 -30.445375 -2.365691 36.603144 1.479262 -6.631342 -13.148130 -8.841362 0.209327 8.585997 23.314726 2.549188 -9.015287 5.548936 0.248200 -3.205900 -8.852600 20.393741 -12.028943 -8.308131 -1.105147 -8.853764 22.895333 9.089186 -36.287620 -23.736126 -0.039600 -1.285200 3.533900 1.829221 8.673263 -0.884804 -1.931549 4.440581 -0.973730 -9.482471 30.861798 6.519958 -4.869100 15.373000 8.860800 -91.070399 -5.535165 1.084824 10.885813 -17.867527 -1.650579 0.728661 -0.259140 -6.672526 -7.125000 0.000000 0.000000 76.579677 -8.059103 -31.880854 -10.828576 17.495429 -1.844378 -0.272540 -0.380580 3.285177 7.125000 0.000000 0.000000 
-0.285861 17.846511 -30.444680 -2.347393 36.434075 1.490892 -6.673621 -13.173298 -8.770164 0.208652 8.586508 23.306299 2.513182 -8.807005 5.486641 0.235500 -3.123500 -8.622800 20.339274 -11.966451 -8.261510 -1.103929 -8.852671 22.887341 9.076569 -36.235031 -23.648916 -0.038800 -1.270900 3.494500 1.850240 8.655913 -0.886348 -1.861119 4.433007 -0.936586 -9.503705 30.847920 6.506727 -4.866800 15.360000 8.853200 -91.064521 -5.572600 1.019525 10.892541 -17.876409 -1.651744 0.726780 -0.259300 -6.681393 -7.125000 0.000000 0.000000 76.302001 -7.940264 -33.088167 -10.518947 17.016022 -1.757502 -0.286956 -0.362366 4.744132 7.125000 0.000000 0.000000 
-0.279900 17.845915 -30.443786 -2.356786 36.260181 1.473953 -6.692105 -13.186484 -8.697232 0.210180 8.590540 23.308168 2.479173 -8.609407 5.420084 0.226000 -3.059800 -8.445200 20.313258 -11.879922 -8.187963 -1.100517 -8.847773 22.867817 9.068685 -36.200779 -23.582610 -0.038100 -1.259900 3.464300 1.861228 8.647483 -0.903485 -1.828133 4.428602 -0.936941 -9.499758 30.828520 6.494285 -4.859600 15.345600 8.842800 -91.025085 -5.612044 0.907497 10.889418 -17.868215 -1.649566 0.723233 -0.261026 -6.658919 -7.125000 0.000000 0.000000 76.062817 -7.891662 -34.200422 -10.237078 16.576958 -1.680617 -0.300968 -0.344033 6.286099 7.125000 0.000000 0.000000 
-0.274634 17.845319 -30.442593 -2.399098 36.083109 1.437011 -6.676927 -13.174040 -8.642777 0.213755 8.597313 23.319636 2.450998 -8.443030 5.361996 0.220200 -3.020800 -8.336700 20.323321 -11.767658 -8.101233 -1.094910 -8.839099 22.836249 9.067216 -36.187272 -23.532558 -0.037600 -1.252000 3.442500 1.850256 8.650319 -0.946983 -1.858512 4.428627 -0.982697 -9.483231 30.801389 6.455355 -4.857700 15.329900 8.820000 -90.925928 -5.632770 0.807093 10.885082 -17.856331 -1.647065 0.720855 -0.261155 -6.642221 -7.125000 0.000000 0.000000 75.917686 -7.938710 -35.180749 -10.010960 16.221314 -1.620537 -0.313646 -0.326868 7.835164 7.125000 0.000000 0.000000 
-0.269864 17.844822 -30.441401 -2.464763 35.905593 1.389191 -6.635464 -13.121990 -8.613195 0.218846 8.605727 23.337878 2.432409 -8.327384 5.302165 0.221700 -3.030700 -8.364100 20.359168 -11.645945 -8.010699 -1.087752 -8.827021 22.795221 9.068363 -36.182801 -23.488967 -0.037300 -1.246100 3.426100 1.829769 8.656702 -1.005104 -1.922370 4.429813 -1.055155 -9.475386 30.771888 6.394362 -4.865200 15.314600 8.792000 -90.794161 -5.650587 0.709006 10.878633 -17.840724 -1.644061 0.719542 -0.260289 -6.600618 -7.125000 0.000000 0.000000 75.813172 -8.044802 -35.997988 -9.828038 15.931436 -1.572867 -0.324700 -0.311009 9.294923 7.125000 0.000000 0.000000 
-0.264399 17.844325 -30.439612 -2.532759 35.718236 1.343456 -6.590547 -13.033937 -8.597378 0.224171 8.614170 23.356457 2.419556 -8.243737 5.244376 0.222400 -3.036000 -8.379100 20.394729 -11.530958 -7.921067 -1.080453 -8.813959 22.751105 9.068180 -36.171302 -23.430087 -0.036800 -1.237500 3.402500 1.802416 8.664293 -1.067268 -2.003837 4.431395 -1.134522 -9.456428 30.754488 6.313909 -4.864700 15.303400 8.754500 -90.643656 -5.662541 0.625068 10.878979 -17.836176 -1.643509 0.720410 -0.257175 -6.558364 -7.125000 0.000000 0.000000 75.756668 -8.215298 -36.619703 -9.702651 15.730270 -1.540483 -0.333653 -0.297179 10.558798 7.125000 0.000000 0.000000 
-0.257842 17.844127 -30.437526 -2.582497 35.527214 1.314859 -6.562137 -12.918877 -8.591807 0.228367 8.620545 23.369431 2.410659 -8.184259 5.190956 0.223200 -3.041000 -8.392900 20.407256 -11.440574 -7.844741 -1.073979 -8.801713 22.709113 9.063038 -36.140305 -23.343361 -0.036000 -1.225200 3.368700 1.787868 8.671796 -1.107337 -2.049043 4.434998 -1.171383 -9.474805 30.753819 6.159727 -4.872800 15.296800 8.691300 -90.518107 -5.700762 0.556120 10.881297 -17.836149 -1.643749 0.721561 -0.254495 -6.518502 -7.125000 0.000000 0.000000 75.678846 -8.386149 -37.107787 -9.611270 15.580975 -1.516721 -0.340741 -0.285100 11.612153 7.125000 0.000000 0.000000 
-0.249793 17.844027 -30.434943 -2.593530 35.330877 1.315903 -6.571259 -12.804645 -8.580393 0.230831 8.624482 23.374893 2.399087 -8.114157 5.133077 0.224000 -3.046400 -8.408000 20.375800 -11.379663 -7.784597 -1.069111 -8.791824 22.673818 9.050856 -36.082005 -23.221501 -0.035100 -1.208600 3.323100 1.780614 8.670381 -1.125266 -2.057201 4.436671 -1.167821 -9.610163 30.774842 5.884185 -4.930100 15.300700 8.600600 -90.415107 -5.758652 0.469704 10.890909 -17.847810 -1.645671 0.721102 -0.253148 -6.487722 -7.125000 0.000000 0.000000 75.591497 -8.572601 -37.407480 -9.562540 15.497947 -1.503752 -0.346095 -0.275233 12.376219 7.125000 0.000000 0.000000 
-0.241149 17.844127 -30.432061 -2.579086 35.137366 1.334305 -6.603086 -12.682795 -8.568655 0.231251 8.625516 23.370799 2.388473 -8.052360 5.082177 0.224600 -3.050500 -8.419400 20.317728 -11.330620 -7.733983 -1.065747 -8.785165 22.649555 9.030859 -36.004359 -23.104776 -0.034300 -1.195500 3.287000 1.775827 8.659459 -1.131988 -2.045698 4.433877 -1.144123 -9.712255 30.803665 5.673007 -4.960600 15.305100 8.535200 -90.325960 -5.823716 0.382297 10.910035 -17.873755 -1.650084 0.719118 -0.253091 -6.478036 -7.125000 0.000000 0.000000 75.507949 -8.770506 -37.580600 -9.546130 15.465351 -1.498889 -0.350181 -0.267082 12.898679 7.125000 0.000000 0.000000 
-0.232703 17.844027 -30.429577 -2.557637 34.955345 1.358193 -6.641567 -12.577975 -8.552430 0.230371 8.624152 23.359983 2.376082 -7.981960 5.036485 0.226000 -3.060300 -8.446600 20.253475 -11.285240 -7.694899 -1.064209 -8.782527 22.637811 9.009895 -35.925077 -22.994113 -0.033500 -1.182300 3.250500 1.776342 8.637319 -1.132520 -2.020724 4.425209 -1.110465 -9.806843 30.834968 5.518877 -4.981100 15.309800 8.496600 -90.249753 -5.888139 0.326974 10.946119 -17.925907 -1.659125 0.716662 -0.251994 -6.566777 -7.125000 0.000000 0.000000 75.425320 -8.967751 -37.680224 -9.551723 15.466959 -1.499933 -0.353487 -0.260469 13.250235 7.125000 0.000000 0.000000 
